<?xml version="1.0" encoding="utf-8"?>
<!-- Generator: Adobe Illustrator 21.0.0, SVG Export Plug-In . SVG Version: 6.00 Build 0)  -->
<svg version="1.1" id="Layer_1" xmlns="http://www.w3.org/2000/svg" xmlns:xlink="http://www.w3.org/1999/xlink" x="0px" y="0px"
	 viewBox="0 0 1053.3 438.5" style="enable-background:new 0 0 1053.3 438.5;" xml:space="preserve">
<style type="text/css">
	.st0{fill:#262262;}
</style>
<g>
	<path class="st0" d="M1037.4,47.6c0.2-7.4,0.5-14.7,0.7-22.1c0.1-1.7-0.1-3.3-0.3-4.7c1.1-5.6,0.4-12.5-3.2-16.4
		c-5-5.3-14.3-5.1-20.6-3.2c-10.1,3-19.7,8.8-27.3,16.2c-7.2,7.1-12.4,14.7-16.7,23.6c-52.1-4.1-121.1-10.1-157.8-13.1
		c0-0.8,0.1-1.6,0.1-2.3c0.1-2.4-0.2-4.5-0.7-6.3c0.7-5.3-0.2-11.3-3.5-14.8c-5-5.3-14.3-5.1-20.6-3.2c-10.1,3-19.7,8.8-27.3,16.2
		c-7.9,7.7-13.4,16.1-17.9,26.2c-5.9,12.9-10.5,34.9,1.4,45.3c3.9,81.8,14.6,307.6,14.2,319.3c-0.6,19.1,17.3,21.4,28.8,12.2
		c11.1-8.9,11.9-27.3,12.5-47c1.2-36,8.4-211,11.1-287.4c45.8-0.4,108-0.3,156.7-0.6c0.7,1.1,1.6,2,2.5,3
		c3.9,81.4,14.6,308.1,14.2,319.9c-0.6,19.1,17.3,21.4,28.8,12.2c11.1-8.9,11.9-27.3,12.5-47c1.2-36.4,8.5-214.7,11.2-289.7
		c3.6-0.3,6-0.6,7.1-1C1057.3,77.8,1057.5,55.5,1037.4,47.6z"/>
	<path class="st0" d="M301.1,47.6c0.2-7.4,0.5-14.7,0.7-22.1c0.1-1.7-0.1-3.3-0.3-4.7c1.1-5.6,0.4-12.5-3.2-16.4
		c-5-5.3-14.3-5.1-20.6-3.2c-10.1,3-19.7,8.8-27.3,16.2c-7.2,7.1-12.4,14.7-16.7,23.6c-52.1-4.1-121.1-10.1-157.8-13.1
		c0-0.8,0.1-1.6,0.1-2.3c0.1-2.4-0.2-4.5-0.7-6.3C76,14,75.1,8,71.8,4.5c-5-5.3-14.3-5.1-20.6-3.2c-10.1,3-19.7,8.8-27.3,16.2
		C16,25.2,10.5,33.6,6,43.7C0.1,56.6-4.5,78.6,7.4,89c3.9,81.8,14.6,307.6,14.2,319.3c-0.6,19.1,17.3,21.4,28.8,12.2
		c11.1-8.9,11.9-27.3,12.5-47c1.2-36,8.4-211,11.1-287.4c45.8-0.4,108-0.3,156.7-0.6c0.7,1.1,1.6,2,2.5,3
		c3.9,81.4,14.6,308.1,14.2,319.9c-0.6,19.1,17.3,21.4,28.8,12.2c11.1-8.9,11.9-27.3,12.5-47c1.2-36.4,8.5-214.7,11.2-289.7
		c3.6-0.3,6-0.6,7.1-1C320.9,77.8,321.2,55.5,301.1,47.6z"/>
	<path class="st0" d="M648.5,10.5c-0.6-2.3-1.6-4.4-3.1-6c-5-5.3-14.3-5.1-20.6-3.2c-10.1,3-19.7,8.8-27.3,16.2
		c-7.9,7.7-13.4,16.1-17.9,26.2c-5.9,13-10.6,35.2,1.7,45.6c-0.6,72.6,3.7,194-8.4,206.5c-15.7,16.2-44.3,37.3-75.8,57.3
		c-0.1-6.3-0.8-13.1-1.5-20.1c-3.9-39-16.5-202.8-22.7-265c-1.4-14.3-2.9-28.6-4.3-42.8c-0.2-1.5-0.4-2.9-0.8-4.1
		C468,15.2,466.2,8.5,462,5c-6-4.9-15.9-3.3-22.2-0.5c-10.3,4.6-19.6,12.1-26.6,21c-7.2,9.3-11.9,18.9-15.3,30.2
		C393,71.8,391.3,99.4,411,106c15.2,79.1,49,255.6,50.2,266.7c0.1,0.6,0.1,1.2,0.2,1.7c-26.7,15.1-52.9,27.9-73.4,35.1
		c-17.3,6.1-1.5,32.8,16.2,28.5c41.4-10.1,180.3-81.3,205.3-115c12.9-17.4,43.2-278.7,41.6-303.4C650.8,15.7,649.9,12.8,648.5,10.5z
		"/>
</g>
</svg>
