<svg xmlns="http://www.w3.org/2000/svg" viewBox="0 0 2795 544"><defs><style>.cls-1,.cls-2,.cls-3,.cls-4,.cls-5,.cls-6{fill:#fff;}.cls-1{opacity:0.01;}.cls-2{opacity:0.02;}.cls-3{opacity:0.03;}.cls-4{opacity:0.04;}.cls-5{opacity:0.06;}.cls-6{opacity:0.05;}</style></defs><title>hexagon-ribbon-white-desktop</title><path class="cls-1" d="M168.12,297.84l-25.84-44.68a10.32,10.32,0,0,0-8.94-5.16H81.66a10.32,10.32,0,0,0-8.94,5.16L46.88,297.84a10.34,10.34,0,0,0,0,10.32l25.84,44.68A10.32,10.32,0,0,0,81.66,358h51.68a10.32,10.32,0,0,0,8.94-5.16l25.84-44.68A10.34,10.34,0,0,0,168.12,297.84Z"/><path class="cls-2" d="M168.12,421.84l-25.84-44.68a10.32,10.32,0,0,0-8.94-5.16H81.66a10.32,10.32,0,0,0-8.94,5.16L46.88,421.84a10.34,10.34,0,0,0,0,10.32l25.84,44.68A10.32,10.32,0,0,0,81.66,482h51.68a10.32,10.32,0,0,0,8.94-5.16l25.84-44.68A10.34,10.34,0,0,0,168.12,421.84Z"/><path class="cls-3" d="M275.62,359.84l-25.84-44.68a10.32,10.32,0,0,0-8.94-5.16H189.16a10.32,10.32,0,0,0-8.94,5.16l-25.84,44.68a10.34,10.34,0,0,0,0,10.32l25.84,44.68a10.32,10.32,0,0,0,8.94,5.16h51.68a10.32,10.32,0,0,0,8.94-5.16l25.84-44.68A10.34,10.34,0,0,0,275.62,359.84Z"/><path class="cls-2" d="M383.12,297.84l-25.84-44.68a10.32,10.32,0,0,0-8.94-5.16H296.66a10.32,10.32,0,0,0-8.94,5.16l-25.84,44.68a10.34,10.34,0,0,0,0,10.32l25.84,44.68a10.32,10.32,0,0,0,8.94,5.16h51.68a10.32,10.32,0,0,0,8.94-5.16l25.84-44.68A10.34,10.34,0,0,0,383.12,297.84Z"/><path class="cls-4" d="M383.12,421.84l-25.84-44.68a10.32,10.32,0,0,0-8.94-5.16H296.66a10.32,10.32,0,0,0-8.94,5.16l-25.84,44.68a10.34,10.34,0,0,0,0,10.32l25.84,44.68a10.32,10.32,0,0,0,8.94,5.16h51.68a10.32,10.32,0,0,0,8.94-5.16l25.84-44.68A10.34,10.34,0,0,0,383.12,421.84Z"/><path class="cls-3" d="M490.62,235.84l-25.84-44.68a10.32,10.32,0,0,0-8.94-5.16H404.16a10.32,10.32,0,0,0-8.94,5.16l-25.84,44.68a10.34,10.34,0,0,0,0,10.32l25.84,44.68a10.32,10.32,0,0,0,8.94,5.16h51.68a10.32,10.32,0,0,0,8.94-5.16l25.84-44.68A10.34,10.34,0,0,0,490.62,235.84Z"/><path class="cls-1" d="M490.62,359.84l-25.84-44.68a10.32,10.32,0,0,0-8.94-5.16H404.16a10.32,10.32,0,0,0-8.94,5.16l-25.84,44.68a10.34,10.34,0,0,0,0,10.32l25.84,44.68a10.32,10.32,0,0,0,8.94,5.16h51.68a10.32,10.32,0,0,0,8.94-5.16l25.84-44.68A10.34,10.34,0,0,0,490.62,359.84Z"/><path class="cls-2" d="M598.12,297.84l-25.84-44.68a10.32,10.32,0,0,0-8.94-5.16H511.66a10.32,10.32,0,0,0-8.94,5.16l-25.84,44.68a10.34,10.34,0,0,0,0,10.32l25.84,44.68a10.32,10.32,0,0,0,8.94,5.16h51.68a10.32,10.32,0,0,0,8.94-5.16l25.84-44.68A10.34,10.34,0,0,0,598.12,297.84Z"/><path class="cls-3" d="M598.12,421.84l-25.84-44.68a10.32,10.32,0,0,0-8.94-5.16H511.66a10.32,10.32,0,0,0-8.94,5.16l-25.84,44.68a10.34,10.34,0,0,0,0,10.32l25.84,44.68a10.32,10.32,0,0,0,8.94,5.16h51.68a10.32,10.32,0,0,0,8.94-5.16l25.84-44.68A10.34,10.34,0,0,0,598.12,421.84Z"/><path class="cls-5" d="M705.62,235.84l-25.84-44.68a10.32,10.32,0,0,0-8.94-5.16H619.16a10.32,10.32,0,0,0-8.94,5.16l-25.84,44.68a10.34,10.34,0,0,0,0,10.32l25.84,44.68a10.32,10.32,0,0,0,8.94,5.16h51.68a10.32,10.32,0,0,0,8.94-5.16l25.84-44.68A10.34,10.34,0,0,0,705.62,235.84Z"/><path class="cls-2" d="M705.62,359.84l-25.84-44.68a10.32,10.32,0,0,0-8.94-5.16H619.16a10.32,10.32,0,0,0-8.94,5.16l-25.84,44.68a10.34,10.34,0,0,0,0,10.32l25.84,44.68a10.32,10.32,0,0,0,8.94,5.16h51.68a10.32,10.32,0,0,0,8.94-5.16l25.84-44.68A10.34,10.34,0,0,0,705.62,359.84Z"/><path class="cls-2" d="M813.12,297.84l-25.84-44.68a10.32,10.32,0,0,0-8.94-5.16H726.66a10.32,10.32,0,0,0-8.94,5.16l-25.84,44.68a10.34,10.34,0,0,0,0,10.32l25.84,44.68a10.32,10.32,0,0,0,8.94,5.16h51.68a10.32,10.32,0,0,0,8.94-5.16l25.84-44.68A10.34,10.34,0,0,0,813.12,297.84Z"/><path class="cls-3" d="M813.12,421.84l-25.84-44.68a10.32,10.32,0,0,0-8.94-5.16H726.66a10.32,10.32,0,0,0-8.94,5.16l-25.84,44.68a10.34,10.34,0,0,0,0,10.32l25.84,44.68a10.32,10.32,0,0,0,8.94,5.16h51.68a10.32,10.32,0,0,0,8.94-5.16l25.84-44.68A10.34,10.34,0,0,0,813.12,421.84Z"/><path class="cls-1" d="M920.62,235.84l-25.84-44.68a10.32,10.32,0,0,0-8.94-5.16H834.16a10.32,10.32,0,0,0-8.94,5.16l-25.84,44.68a10.34,10.34,0,0,0,0,10.32l25.84,44.68a10.32,10.32,0,0,0,8.94,5.16h51.68a10.32,10.32,0,0,0,8.94-5.16l25.84-44.68A10.34,10.34,0,0,0,920.62,235.84Z"/><path class="cls-5" d="M920.62,359.84l-25.84-44.68a10.32,10.32,0,0,0-8.94-5.16H834.16a10.32,10.32,0,0,0-8.94,5.16l-25.84,44.68a10.34,10.34,0,0,0,0,10.32l25.84,44.68a10.32,10.32,0,0,0,8.94,5.16h51.68a10.32,10.32,0,0,0,8.94-5.16l25.84-44.68A10.34,10.34,0,0,0,920.62,359.84Z"/><path class="cls-3" d="M920.62,483.84l-25.84-44.68a10.32,10.32,0,0,0-8.94-5.16H834.16a10.32,10.32,0,0,0-8.94,5.16l-25.84,44.68a10.34,10.34,0,0,0,0,10.32l25.84,44.68a10.32,10.32,0,0,0,8.94,5.16h51.68a10.32,10.32,0,0,0,8.94-5.16l25.84-44.68A10.34,10.34,0,0,0,920.62,483.84Z"/><path class="cls-2" d="M1028.12,297.84l-25.84-44.68a10.32,10.32,0,0,0-8.94-5.16H941.66a10.32,10.32,0,0,0-8.94,5.16l-25.84,44.68a10.34,10.34,0,0,0,0,10.32l25.84,44.68a10.32,10.32,0,0,0,8.94,5.16h51.68a10.32,10.32,0,0,0,8.94-5.16l25.84-44.68A10.34,10.34,0,0,0,1028.12,297.84Z"/><path class="cls-4" d="M1028.12,421.84l-25.84-44.68a10.32,10.32,0,0,0-8.94-5.16H941.66a10.32,10.32,0,0,0-8.94,5.16l-25.84,44.68a10.34,10.34,0,0,0,0,10.32l25.84,44.68a10.32,10.32,0,0,0,8.94,5.16h51.68a10.32,10.32,0,0,0,8.94-5.16l25.84-44.68A10.34,10.34,0,0,0,1028.12,421.84Z"/><path class="cls-2" d="M1135.62,359.84l-25.84-44.68a10.32,10.32,0,0,0-8.94-5.16h-51.68a10.32,10.32,0,0,0-8.94,5.16l-25.84,44.68a10.34,10.34,0,0,0,0,10.32l25.84,44.68a10.32,10.32,0,0,0,8.94,5.16h51.68a10.32,10.32,0,0,0,8.94-5.16l25.84-44.68A10.34,10.34,0,0,0,1135.62,359.84Z"/><path class="cls-1" d="M1243.12,297.84l-25.84-44.68a10.32,10.32,0,0,0-8.94-5.16h-51.68a10.32,10.32,0,0,0-8.94,5.16l-25.84,44.68a10.34,10.34,0,0,0,0,10.32l25.84,44.68a10.32,10.32,0,0,0,8.94,5.16h51.68a10.32,10.32,0,0,0,8.94-5.16l25.84-44.68A10.34,10.34,0,0,0,1243.12,297.84Z"/><path class="cls-6" d="M1243.12,421.84l-25.84-44.68a10.32,10.32,0,0,0-8.94-5.16h-51.68a10.32,10.32,0,0,0-8.94,5.16l-25.84,44.68a10.34,10.34,0,0,0,0,10.32l25.84,44.68a10.32,10.32,0,0,0,8.94,5.16h51.68a10.32,10.32,0,0,0,8.94-5.16l25.84-44.68A10.34,10.34,0,0,0,1243.12,421.84Z"/><path class="cls-3" d="M1350.62,359.84l-25.84-44.68a10.32,10.32,0,0,0-8.94-5.16h-51.68a10.32,10.32,0,0,0-8.94,5.16l-25.84,44.68a10.34,10.34,0,0,0,0,10.32l25.84,44.68a10.32,10.32,0,0,0,8.94,5.16h51.68a10.32,10.32,0,0,0,8.94-5.16l25.84-44.68A10.34,10.34,0,0,0,1350.62,359.84Z"/><path class="cls-1" d="M1458.12,297.84l-25.84-44.68a10.32,10.32,0,0,0-8.94-5.16h-51.68a10.32,10.32,0,0,0-8.94,5.16l-25.84,44.68a10.34,10.34,0,0,0,0,10.32l25.84,44.68a10.32,10.32,0,0,0,8.94,5.16h51.68a10.32,10.32,0,0,0,8.94-5.16l25.84-44.68A10.34,10.34,0,0,0,1458.12,297.84Z"/><path class="cls-2" d="M1458.12,421.84l-25.84-44.68a10.32,10.32,0,0,0-8.94-5.16h-51.68a10.32,10.32,0,0,0-8.94,5.16l-25.84,44.68a10.34,10.34,0,0,0,0,10.32l25.84,44.68a10.32,10.32,0,0,0,8.94,5.16h51.68a10.32,10.32,0,0,0,8.94-5.16l25.84-44.68A10.34,10.34,0,0,0,1458.12,421.84Z"/><path class="cls-3" d="M1565.62,359.84l-25.84-44.68a10.32,10.32,0,0,0-8.94-5.16h-51.68a10.32,10.32,0,0,0-8.94,5.16l-25.84,44.68a10.34,10.34,0,0,0,0,10.32l25.84,44.68a10.32,10.32,0,0,0,8.94,5.16h51.68a10.32,10.32,0,0,0,8.94-5.16l25.84-44.68A10.34,10.34,0,0,0,1565.62,359.84Z"/><path class="cls-2" d="M1673.12,297.84l-25.84-44.68a10.32,10.32,0,0,0-8.94-5.16h-51.68a10.32,10.32,0,0,0-8.94,5.16l-25.84,44.68a10.34,10.34,0,0,0,0,10.32l25.84,44.68a10.32,10.32,0,0,0,8.94,5.16h51.68a10.32,10.32,0,0,0,8.94-5.16l25.84-44.68A10.34,10.34,0,0,0,1673.12,297.84Z"/><path class="cls-4" d="M1673.12,421.84l-25.84-44.68a10.32,10.32,0,0,0-8.94-5.16h-51.68a10.32,10.32,0,0,0-8.94,5.16l-25.84,44.68a10.34,10.34,0,0,0,0,10.32l25.84,44.68a10.32,10.32,0,0,0,8.94,5.16h51.68a10.32,10.32,0,0,0,8.94-5.16l25.84-44.68A10.34,10.34,0,0,0,1673.12,421.84Z"/><path class="cls-1" d="M1780.62,359.84l-25.84-44.68a10.32,10.32,0,0,0-8.94-5.16h-51.68a10.32,10.32,0,0,0-8.94,5.16l-25.84,44.68a10.34,10.34,0,0,0,0,10.32l25.84,44.68a10.32,10.32,0,0,0,8.94,5.16h51.68a10.32,10.32,0,0,0,8.94-5.16l25.84-44.68A10.34,10.34,0,0,0,1780.62,359.84Z"/><path class="cls-6" d="M1888.12,297.84l-25.84-44.68a10.32,10.32,0,0,0-8.94-5.16h-51.68a10.32,10.32,0,0,0-8.94,5.16l-25.84,44.68a10.34,10.34,0,0,0,0,10.32l25.84,44.68a10.32,10.32,0,0,0,8.94,5.16h51.68a10.32,10.32,0,0,0,8.94-5.16l25.84-44.68A10.34,10.34,0,0,0,1888.12,297.84Z"/><path class="cls-3" d="M1888.12,421.84l-25.84-44.68a10.32,10.32,0,0,0-8.94-5.16h-51.68a10.32,10.32,0,0,0-8.94,5.16l-25.84,44.68a10.34,10.34,0,0,0,0,10.32l25.84,44.68a10.32,10.32,0,0,0,8.94,5.16h51.68a10.32,10.32,0,0,0,8.94-5.16l25.84-44.68A10.34,10.34,0,0,0,1888.12,421.84Z"/><path class="cls-5" d="M1995.62,235.84l-25.84-44.68a10.32,10.32,0,0,0-8.94-5.16h-51.68a10.32,10.32,0,0,0-8.94,5.16l-25.84,44.68a10.34,10.34,0,0,0,0,10.32l25.84,44.68a10.32,10.32,0,0,0,8.94,5.16h51.68a10.32,10.32,0,0,0,8.94-5.16l25.84-44.68A10.34,10.34,0,0,0,1995.62,235.84Z"/><path class="cls-2" d="M1995.62,359.84l-25.84-44.68a10.32,10.32,0,0,0-8.94-5.16h-51.68a10.32,10.32,0,0,0-8.94,5.16l-25.84,44.68a10.34,10.34,0,0,0,0,10.32l25.84,44.68a10.32,10.32,0,0,0,8.94,5.16h51.68a10.32,10.32,0,0,0,8.94-5.16l25.84-44.68A10.34,10.34,0,0,0,1995.62,359.84Z"/><path class="cls-4" d="M2103.12,173.84l-25.84-44.68a10.32,10.32,0,0,0-8.94-5.16h-51.68a10.32,10.32,0,0,0-8.94,5.16l-25.84,44.68a10.34,10.34,0,0,0,0,10.32l25.84,44.68a10.32,10.32,0,0,0,8.94,5.16h51.68a10.32,10.32,0,0,0,8.94-5.16l25.84-44.68A10.34,10.34,0,0,0,2103.12,173.84Z"/><path class="cls-5" d="M2103.12,297.84l-25.84-44.68a10.32,10.32,0,0,0-8.94-5.16h-51.68a10.32,10.32,0,0,0-8.94,5.16l-25.84,44.68a10.34,10.34,0,0,0,0,10.32l25.84,44.68a10.32,10.32,0,0,0,8.94,5.16h51.68a10.32,10.32,0,0,0,8.94-5.16l25.84-44.68A10.34,10.34,0,0,0,2103.12,297.84Z"/><path class="cls-3" d="M2103.12,421.84l-25.84-44.68a10.32,10.32,0,0,0-8.94-5.16h-51.68a10.32,10.32,0,0,0-8.94,5.16l-25.84,44.68a10.34,10.34,0,0,0,0,10.32l25.84,44.68a10.32,10.32,0,0,0,8.94,5.16h51.68a10.32,10.32,0,0,0,8.94-5.16l25.84-44.68A10.34,10.34,0,0,0,2103.12,421.84Z"/><path class="cls-4" d="M2210.62,235.84l-25.84-44.68a10.32,10.32,0,0,0-8.94-5.16h-51.68a10.32,10.32,0,0,0-8.94,5.16l-25.84,44.68a10.34,10.34,0,0,0,0,10.32l25.84,44.68a10.32,10.32,0,0,0,8.94,5.16h51.68a10.32,10.32,0,0,0,8.94-5.16l25.84-44.68A10.34,10.34,0,0,0,2210.62,235.84Z"/><path class="cls-1" d="M2210.62,359.84l-25.84-44.68a10.32,10.32,0,0,0-8.94-5.16h-51.68a10.32,10.32,0,0,0-8.94,5.16l-25.84,44.68a10.34,10.34,0,0,0,0,10.32l25.84,44.68a10.32,10.32,0,0,0,8.94,5.16h51.68a10.32,10.32,0,0,0,8.94-5.16l25.84-44.68A10.34,10.34,0,0,0,2210.62,359.84Z"/><path class="cls-1" d="M2318.12,173.84l-25.84-44.68a10.32,10.32,0,0,0-8.94-5.16h-51.68a10.32,10.32,0,0,0-8.94,5.16l-25.84,44.68a10.34,10.34,0,0,0,0,10.32l25.84,44.68a10.32,10.32,0,0,0,8.94,5.16h51.68a10.32,10.32,0,0,0,8.94-5.16l25.84-44.68A10.34,10.34,0,0,0,2318.12,173.84Z"/><path class="cls-6" d="M2318.12,297.84l-25.84-44.68a10.32,10.32,0,0,0-8.94-5.16h-51.68a10.32,10.32,0,0,0-8.94,5.16l-25.84,44.68a10.34,10.34,0,0,0,0,10.32l25.84,44.68a10.32,10.32,0,0,0,8.94,5.16h51.68a10.32,10.32,0,0,0,8.94-5.16l25.84-44.68A10.34,10.34,0,0,0,2318.12,297.84Z"/><path class="cls-3" d="M2425.62,235.84l-25.84-44.68a10.32,10.32,0,0,0-8.94-5.16h-51.68a10.32,10.32,0,0,0-8.94,5.16l-25.84,44.68a10.34,10.34,0,0,0,0,10.32l25.84,44.68a10.32,10.32,0,0,0,8.94,5.16h51.68a10.32,10.32,0,0,0,8.94-5.16l25.84-44.68A10.34,10.34,0,0,0,2425.62,235.84Z"/><path class="cls-2" d="M2425.62,359.84l-25.84-44.68a10.32,10.32,0,0,0-8.94-5.16h-51.68a10.32,10.32,0,0,0-8.94,5.16l-25.84,44.68a10.34,10.34,0,0,0,0,10.32l25.84,44.68a10.32,10.32,0,0,0,8.94,5.16h51.68a10.32,10.32,0,0,0,8.94-5.16l25.84-44.68A10.34,10.34,0,0,0,2425.62,359.84Z"/><path class="cls-1" d="M2533.12,173.84l-25.84-44.68a10.32,10.32,0,0,0-8.94-5.16h-51.68a10.32,10.32,0,0,0-8.94,5.16l-25.84,44.68a10.34,10.34,0,0,0,0,10.32l25.84,44.68a10.32,10.32,0,0,0,8.94,5.16h51.68a10.32,10.32,0,0,0,8.94-5.16l25.84-44.68A10.34,10.34,0,0,0,2533.12,173.84Z"/><path class="cls-2" d="M2533.12,297.84l-25.84-44.68a10.32,10.32,0,0,0-8.94-5.16h-51.68a10.32,10.32,0,0,0-8.94,5.16l-25.84,44.68a10.34,10.34,0,0,0,0,10.32l25.84,44.68a10.32,10.32,0,0,0,8.94,5.16h51.68a10.32,10.32,0,0,0,8.94-5.16l25.84-44.68A10.34,10.34,0,0,0,2533.12,297.84Z"/><path class="cls-3" d="M2533.12,421.84l-25.84-44.68a10.32,10.32,0,0,0-8.94-5.16h-51.68a10.32,10.32,0,0,0-8.94,5.16l-25.84,44.68a10.34,10.34,0,0,0,0,10.32l25.84,44.68a10.32,10.32,0,0,0,8.94,5.16h51.68a10.32,10.32,0,0,0,8.94-5.16l25.84-44.68A10.34,10.34,0,0,0,2533.12,421.84Z"/><path class="cls-2" d="M2640.62,111.84l-25.84-44.68a10.32,10.32,0,0,0-8.94-5.16h-51.68a10.32,10.32,0,0,0-8.94,5.16l-25.84,44.68a10.34,10.34,0,0,0,0,10.32l25.84,44.68a10.32,10.32,0,0,0,8.94,5.16h51.68a10.32,10.32,0,0,0,8.94-5.16l25.84-44.68A10.34,10.34,0,0,0,2640.62,111.84Z"/><path class="cls-3" d="M2640.62,235.84l-25.84-44.68a10.32,10.32,0,0,0-8.94-5.16h-51.68a10.32,10.32,0,0,0-8.94,5.16l-25.84,44.68a10.34,10.34,0,0,0,0,10.32l25.84,44.68a10.32,10.32,0,0,0,8.94,5.16h51.68a10.32,10.32,0,0,0,8.94-5.16l25.84-44.68A10.34,10.34,0,0,0,2640.62,235.84Z"/><path class="cls-2" d="M2640.62,359.84l-25.84-44.68a10.32,10.32,0,0,0-8.94-5.16h-51.68a10.32,10.32,0,0,0-8.94,5.16l-25.84,44.68a10.34,10.34,0,0,0,0,10.32l25.84,44.68a10.32,10.32,0,0,0,8.94,5.16h51.68a10.32,10.32,0,0,0,8.94-5.16l25.84-44.68A10.34,10.34,0,0,0,2640.62,359.84Z"/><path class="cls-1" d="M2748.12,173.84l-25.84-44.68a10.32,10.32,0,0,0-8.94-5.16h-51.68a10.32,10.32,0,0,0-8.94,5.16l-25.84,44.68a10.34,10.34,0,0,0,0,10.32l25.84,44.68a10.32,10.32,0,0,0,8.94,5.16h51.68a10.32,10.32,0,0,0,8.94-5.16l25.84-44.68A10.34,10.34,0,0,0,2748.12,173.84Z"/><path class="cls-3" d="M2748.12,297.84l-25.84-44.68a10.32,10.32,0,0,0-8.94-5.16h-51.68a10.32,10.32,0,0,0-8.94,5.16l-25.84,44.68a10.34,10.34,0,0,0,0,10.32l25.84,44.68a10.32,10.32,0,0,0,8.94,5.16h51.68a10.32,10.32,0,0,0,8.94-5.16l25.84-44.68A10.34,10.34,0,0,0,2748.12,297.84Z"/><path class="cls-3" d="M60.62,359.84,34.78,315.16A10.32,10.32,0,0,0,25.84,310H0V420H25.84a10.32,10.32,0,0,0,8.94-5.16l25.84-44.68A10.34,10.34,0,0,0,60.62,359.84Z"/><path class="cls-2" d="M60.62,235.84,34.78,191.16A10.32,10.32,0,0,0,25.84,186H0V296H25.84a10.32,10.32,0,0,0,8.94-5.16l25.84-44.68A10.34,10.34,0,0,0,60.62,235.84Z"/><path class="cls-3" d="M2795,310h-25.84a10.32,10.32,0,0,0-8.94,5.16l-25.84,44.68a10.34,10.34,0,0,0,0,10.32l25.84,44.68a10.32,10.32,0,0,0,8.94,5.16H2795Z"/><path class="cls-2" d="M2795,186h-25.84a10.32,10.32,0,0,0-8.94,5.16l-25.84,44.68a10.34,10.34,0,0,0,0,10.32l25.84,44.68a10.32,10.32,0,0,0,8.94,5.16H2795Z"/><g id="addition"><path class="cls-4" d="M1780.62,235.84l-25.84-44.68a10.32,10.32,0,0,0-8.94-5.16h-51.68a10.32,10.32,0,0,0-8.94,5.16l-25.84,44.68a10.34,10.34,0,0,0,0,10.32l25.84,44.68a10.32,10.32,0,0,0,8.94,5.16h51.68a10.32,10.32,0,0,0,8.94-5.16l25.84-44.68A10.34,10.34,0,0,0,1780.62,235.84Z"/><path class="cls-2" d="M1888.12,49.84,1862.28,5.16A10.32,10.32,0,0,0,1853.34,0h-51.68a10.32,10.32,0,0,0-8.94,5.16l-25.84,44.68a10.34,10.34,0,0,0,0,10.32l25.84,44.68a10.32,10.32,0,0,0,8.94,5.16h51.68a10.32,10.32,0,0,0,8.94-5.16l25.84-44.68A10.34,10.34,0,0,0,1888.12,49.84Z"/><path class="cls-1" d="M1888.12,173.84l-25.84-44.68a10.32,10.32,0,0,0-8.94-5.16h-51.68a10.32,10.32,0,0,0-8.94,5.16l-25.84,44.68a10.34,10.34,0,0,0,0,10.32l25.84,44.68a10.32,10.32,0,0,0,8.94,5.16h51.68a10.32,10.32,0,0,0,8.94-5.16l25.84-44.68A10.34,10.34,0,0,0,1888.12,173.84Z"/><path class="cls-3" d="M1995.62,111.84l-25.84-44.68a10.32,10.32,0,0,0-8.94-5.16h-51.68a10.32,10.32,0,0,0-8.94,5.16l-25.84,44.68a10.34,10.34,0,0,0,0,10.32l25.84,44.68a10.32,10.32,0,0,0,8.94,5.16h51.68a10.32,10.32,0,0,0,8.94-5.16l25.84-44.68A10.34,10.34,0,0,0,1995.62,111.84Z"/><path class="cls-2" d="M2103.12,49.84,2077.28,5.16A10.32,10.32,0,0,0,2068.34,0h-51.68a10.32,10.32,0,0,0-8.94,5.16l-25.84,44.68a10.34,10.34,0,0,0,0,10.32l25.84,44.68a10.32,10.32,0,0,0,8.94,5.16h51.68a10.32,10.32,0,0,0,8.94-5.16l25.84-44.68A10.34,10.34,0,0,0,2103.12,49.84Z"/><path class="cls-2" d="M2210.62,111.84l-25.84-44.68a10.32,10.32,0,0,0-8.94-5.16h-51.68a10.32,10.32,0,0,0-8.94,5.16l-25.84,44.68a10.34,10.34,0,0,0,0,10.32l25.84,44.68a10.32,10.32,0,0,0,8.94,5.16h51.68a10.32,10.32,0,0,0,8.94-5.16l25.84-44.68A10.34,10.34,0,0,0,2210.62,111.84Z"/></g></svg>