<svg version="1.1" viewBox="0.0 0.0 296.5853018372703 247.54330708661416" fill="none" stroke="none" stroke-linecap="square" stroke-miterlimit="10" xmlns:xlink="http://www.w3.org/1999/xlink" xmlns="http://www.w3.org/2000/svg"><clipPath id="p.0"><path d="m0 0l296.5853 0l0 247.5433l-296.5853 0l0 -247.5433z" clip-rule="nonzero"/></clipPath><g clip-path="url(#p.0)"><path fill="#000000" fill-opacity="0.0" d="m0 0l296.5853 0l0 247.5433l-296.5853 0z" fill-rule="evenodd"/><path fill="#999999" d="m65.125984 58.110237l83.71653 -50.110237l83.71654 50.110237z" fill-rule="evenodd"/><path fill="#999999" d="m232.55905 188.98688l-83.71654 50.11023l-83.71653 -50.11023z" fill-rule="evenodd"/><path fill="#999999" d="m256.36353 80.32021l33.322815 43.22834l-33.322815 43.228348z" fill-rule="evenodd"/><path fill="#999999" d="m41.32152 166.7769l-33.322834 -43.228348l33.322834 -43.22834z" fill-rule="evenodd"/><path fill="#999999" d="m41.30315 84.21522l-8.267715 -35.88976l35.88976 8.267715z" fill-rule="evenodd"/><path fill="#999999" d="m229.26767 56.949818l35.874023 -8.267719l-8.283478 35.889763z" fill-rule="evenodd"/><path fill="#999999" d="m256.84744 162.8732l8.266876 35.88617l-35.88617 -8.266876z" fill-rule="evenodd"/><path fill="#999999" d="m68.90172 190.13588l-35.870426 8.2668915l8.282635 -35.88617z" fill-rule="evenodd"/><path fill="#000000" fill-opacity="0.0" d="m9.074803 124.338585l23.716537 -75.238846l116.944885 -40.889767l115.71916 41.299213l24.532806 76.05512l-24.94226 74.01049l-115.30971 40.0735l-116.944885 -40.48294z" fill-rule="evenodd"/><path stroke="#000000" stroke-width="2.0" stroke-linejoin="round" stroke-linecap="butt" d="m9.074803 124.338585l23.716537 -75.238846l116.944885 -40.889767l115.71916 41.299213l24.532806 76.05512l-24.94226 74.01049l-115.30971 40.0735l-116.944885 -40.48294z" fill-rule="evenodd"/><path fill="#393768" d="m82.96903 165.30446l-29.351711 0l11.650921 15.908142l19.939629 0l13.4461975 -11.650925l0 -84.472435l-14.118111 -14.564308z" fill-rule="evenodd"/><path fill="#393768" d="m147.0504 180.9895l-26.438324 0l-13.669296 -13.443573l0 -83.80052l12.322838 -14.341209l28.456688 0l11.876648 16.133858l-37.419952 0l0 31.144356l34.05774 0l0 16.805779l-34.05774 0l0 32.48819l37.64305 0z" fill-rule="evenodd"/><path fill="#393768" d="m180.21312 180.54068l0 -67.666664l21.958008 67.666664l22.404205 -66.32283l0 66.32283l15.595795 -15.45932l0 -78.87138l-17.251968 -16.580055l-20.16536 62.06562l-21.286087 -61.393707l-17.02887 13.443573l0 84.47244z" fill-rule="evenodd"/></g></svg>