<?xml version="1.0" encoding="UTF-8"?>
<svg width="186px" height="103px" viewBox="0 0 186 103" version="1.1" xmlns="http://www.w3.org/2000/svg" xmlns:xlink="http://www.w3.org/1999/xlink">
    <!-- Generator: Sketch 63.1 (92452) - https://sketch.com -->
    <title>Group</title>
    <desc>Created with Sketch.</desc>
    <g id="Page-1" stroke="none" stroke-width="1" fill="none" fill-rule="evenodd">
        <g id="Group" fill="#0A82C8" fill-rule="nonzero">
            <path d="M13.549,96.4234 C13.549,95.467 13.6552667,93.873 13.8678,91.6414 C14.0803333,89.4098 14.2928667,78.8062667 14.5054,75.8308 C14.7179333,72.8553333 14.9304667,69.6407667 15.143,66.1871 C15.3555333,62.7334333 15.4618,59.3594667 15.4618,56.0652 C15.4618,52.5584 15.4086667,49.5032333 15.3024,46.8997 C15.1961333,44.2961667 15.143,41.5066667 15.143,38.5312 C15.143,34.068 15.3024,32.4985333 15.6212,27.8228 C15.94,23.1470667 16.0994,18.4182 16.0994,13.6362 C16.0994,12.1484667 16.3119333,10.7138667 16.737,9.3324 C17.1620667,7.95093333 17.3746,6.782 17.3746,5.8256 C17.3746,4.65666667 16.6838667,3.72683333 15.3024,3.0361 C13.9209333,2.34536667 12.752,2 11.7956,2 C11.2642667,2 10.3344333,2.37193333 9.0061,3.1158 C7.67776667,3.85966667 6.34943333,4.73636667 5.0211,5.7459 C3.69276667,6.75543333 2.52383333,7.79153333 1.5143,8.8542 C0.504766667,9.91686667 -8.8817842e-15,10.7138667 -8.8817842e-15,11.2452 C-8.8817842e-15,11.8828 0.265666667,12.7063667 0.797,13.7159 C1.32833333,14.7254333 1.88623333,16.5319667 2.4707,19.1355 C3.05516667,21.7390333 3.61306667,25.3521 4.1444,29.9747 C4.67573333,34.5973 4.9414,37.7873333 4.9414,45.5448 L4.9414,68.0202 C4.9414,71.3144667 4.91483333,74.1836667 4.8617,76.6278 C4.80856667,79.0719333 4.72886667,89.1441333 4.6226,90.8444 C2.4707,108.602539 13.549,97.2735333 13.549,96.4234 Z" id="Path"></path>
            <path d="M87.8828,101.7558 C89.6893333,101.7558 90.9911,100.7197 91.7881,98.6475 C92.5851,96.5753 92.9836,92.3512 92.9836,85.9752 C92.9836,66.8472 93.1164333,48.7839 93.3821,37.7853 C93.6477667,26.7867 93.9931333,18.9495333 94.4182,14.2738 C94.5244667,12.4672667 94.8167,10.8998333 95.2949,9.5715 C95.7731,8.24316667 96.0122,6.9414 96.0122,5.6662 C96.0122,5.0286 95.2683333,4.25816667 93.7806,3.3549 C92.2928667,2.45163333 90.9645333,2 89.7956,2 C89.0517333,2 88.0156333,2.3985 86.6873,3.1955 C85.3589667,3.9925 84.0572,4.92233333 82.782,5.985 C81.5068,7.04766667 80.391,8.16346667 79.4346,9.3324 C78.4782,10.5013333 78,11.4046 78,12.0422 C78,12.8923333 78.1859667,13.7690333 78.5579,14.6723 C78.9298333,15.5755667 79.6471333,16.6116667 80.7098,17.7806 C81.3474,18.5244667 81.7193333,19.4011667 81.8256,20.4107 C81.9318667,21.4202333 81.985,22.6688667 81.985,24.1566 C81.985,26.9195333 82.0647,29.895 82.2241,33.083 C82.3835,36.271 82.4632,40.6810667 82.4632,46.3132 L82.4636716,48.228358 C82.4674444,55.8003296 82.4938538,62.3083769 82.5429,67.7525 C82.5960333,73.6503 82.6757333,81.5385667 82.782,85.4173 C82.8882667,89.2960333 83.0742333,92.3246333 83.3399,94.5031 C83.6055667,96.6815667 83.9509333,98.3021333 84.376,99.3648 C84.8010667,100.427467 85.3058333,101.091633 85.8903,101.3573 C86.4747667,101.622967 87.1389333,101.7558 87.8828,101.7558 Z" id="Path"></path>
            <path d="M32.0353982,128 C33.1386431,128 33.9336283,127.356045 34.420354,126.068136 C34.9070796,124.780227 35.1504425,122.154874 35.1504425,118.192077 C35.1504425,106.303686 35.2315634,95.0770241 35.3938053,88.241199 C35.5560472,81.4053739 35.7669617,76.5344358 36.0265487,73.6283845 C36.0914454,72.505592 36.2699115,71.5314044 36.5619469,70.7058216 C36.8539823,69.8802389 37,69.0711678 37,68.2786084 C37,67.8823286 36.5457227,67.4034907 35.6371681,66.8420944 C34.7286136,66.2806981 33.9174041,66 33.2035398,66 C32.7492625,66 32.1165192,66.2476748 31.3053097,66.7430245 C30.4941003,67.2383741 29.699115,67.816282 28.920354,68.4767482 C28.1415929,69.1372144 27.460177,69.8307039 26.8761062,70.5572167 C26.2920354,71.2837295 26,71.8451258 26,72.2414055 C26,72.7697785 26.1135693,73.3146631 26.340708,73.8760593 C26.5678466,74.4374556 27.0058997,75.0814101 27.6548673,75.8079229 C28.0442478,76.2702493 28.2713864,76.8151339 28.3362832,77.4425768 C28.4011799,78.0700197 28.4336283,78.8460674 28.4336283,79.7707201 C28.4336283,81.4879322 28.4823009,83.3372375 28.579646,85.3186361 C28.6769912,87.3000347 28.7256637,90.0409694 28.7256637,93.5414402 L28.7259517,94.7317449 C28.7282557,99.4378596 28.7443839,103.482727 28.7743363,106.866346 C28.8067847,110.531933 28.8554572,115.434631 28.920354,117.845332 C28.9852507,120.256034 29.0988201,122.138363 29.2610619,123.492318 C29.4233038,124.846274 29.6342183,125.853485 29.8938053,126.513951 C30.1533923,127.174417 30.4616519,127.587209 30.8185841,127.752325 C31.1755162,127.917442 31.5811209,128 32.0353982,128 Z" id="Path" transform="translate(31.500000, 97.000000) rotate(-90.000000) translate(-31.500000, -97.000000) "></path>
            <path d="M137.4332,102.798 C138.177067,102.798 138.7881,102.107267 139.2663,100.7258 C139.7445,99.3443333 140.143,97.7503333 140.4618,95.9438 C140.7806,94.1372667 140.993133,92.3307333 141.0994,90.5242 C141.198582,88.8381022 141.251479,87.5685698 141.258092,86.7156027 L141.2588,57.2246 C143.065333,56.9058 145.695433,56.5338667 149.1491,56.1088 C152.602767,55.6837333 156.215833,55.2852333 159.9883,54.9133 C163.760767,54.5413667 167.373833,54.2225667 170.8275,53.9569 C174.281167,53.6912333 176.911267,53.5584 178.7178,53.5584 C179.780467,53.5584 180.683733,53.0802 181.4276,52.1238 C182.171467,51.1674 182.5434,49.8390667 182.5434,48.1388 C182.5434,46.226 181.533867,45.2696 179.5148,45.2696 C176.9644,45.2696 173.5373,45.5618333 169.2335,46.1463 C164.9297,46.7307667 160.014867,47.023 154.489,47.023 L141.8964,47.023 C141.8964,45.9869 141.881456,44.9657438 141.851569,43.9595313 L141.8167,42.9583 C141.763567,41.6299667 141.737,40.2750667 141.737,38.8936 C141.737,34.7492 141.763567,30.6313667 141.8167,26.5401 C141.869833,22.4488333 142.0558,18.8623333 142.3746,15.7806 C142.587133,13.9740667 142.826233,12.8582667 143.0919,12.4332 C143.357567,12.0081333 143.756067,11.7424667 144.2874,11.6362 C146.093933,11.3174 148.564633,10.9986 151.6995,10.6798 C154.834367,10.361 158.208333,10.0156333 161.8214,9.6437 C165.434467,9.27176667 168.9944,8.89983333 172.5012,8.5279 C176.008,8.15596667 178.983467,7.75746667 181.4276,7.3324 C181.958933,7.22613333 182.4637,6.9339 182.9419,6.4557 C183.4201,5.9775 183.845167,5.44616667 184.2171,4.8617 C184.589033,4.27723333 184.907833,3.6662 185.1735,3.0286 C185.439167,2.391 185.572,1.9128 185.572,1.594 C185.572,0.9564 185.359467,0.531333333 184.9344,0.3188 C184.509333,0.106266667 184.1374,9.9475983e-14 183.8186,9.9475983e-14 C182.649667,9.9475983e-14 180.657167,0.0797 177.8411,0.2391 C175.025033,0.3985 171.837033,0.5579 168.2771,0.7173 C164.717167,0.8767 160.971267,1.0361 157.0394,1.1955 C153.107533,1.3549 149.441333,1.4346 146.0408,1.4346 C142.959067,1.4346 140.594633,1.30176667 138.9475,1.0361 C137.300367,0.770433333 135.786067,0.6376 134.4046,0.6376 C133.660733,0.6376 132.757467,0.982966667 131.6948,1.6737 C130.632133,2.36443333 129.596033,3.188 128.5865,4.1444 C127.576967,5.1008 126.726833,6.08376667 126.0361,7.0933 C125.345367,8.10283333 125,8.87326667 125,9.4046 C125,10.5735333 125.425067,12.0612667 126.2752,13.8678 C127.125333,15.6743333 128.188,17.4808667 129.4632,19.2874 C129.569467,20.8814 129.728867,22.8739 129.9414,25.2649 C130.153933,27.6559 130.3399,29.9937667 130.4993,32.2785 C130.6587,34.5632333 130.8181,36.6354333 130.9775,38.4951 C131.1369,40.3547667 131.2166,41.6034 131.2166,42.241 C131.2166,44.0475333 130.9775,45.6946667 130.4993,47.1824 C130.0211,48.6701333 129.782,50.2641333 129.782,51.9644 C129.782,53.0270667 129.888267,53.9569 130.1008,54.7539 C130.313333,55.5509 130.579,56.3744667 130.8978,57.2246 C131.2166,58.0747333 131.482267,59.0311333 131.6948,60.0938 C131.907333,61.1564667 132.0136,62.5910667 132.0136,64.3976 C132.0136,71.8362667 131.960467,77.8137667 131.8542,82.3301 C131.747933,86.8464333 131.641667,86.4063667 131.5354,89.0099 C131.429133,91.6134333 131.322867,93.5793667 131.2166,94.9077 C131.110333,96.2360333 131.0572,97.4315333 131.0572,98.4942 C131.0572,99.0255333 131.2963,99.5303 131.7745,100.0085 C132.2527,100.4867 132.8106,100.938333 133.4482,101.3634 C134.0858,101.788467 134.776533,102.133833 135.5204,102.3995 C136.264267,102.665167 136.901867,102.798 137.4332,102.798 Z" id="Path"></path>
        </g>
    </g>
</svg>