<?xml version="1.0" encoding="utf-8"?>
<!-- Generator: Adobe Illustrator 21.0.0, SVG Export Plug-In . SVG Version: 6.00 Build 0)  -->
<svg version="1.1" id="Layer_1" xmlns="http://www.w3.org/2000/svg" xmlns:xlink="http://www.w3.org/1999/xlink" x="0px" y="0px"
	 viewBox="0 0 1106.1 611.7" style="enable-background:new 0 0 1106.1 611.7;" xml:space="preserve">
<style type="text/css">
	.st0{fill:#FFFFFF;}
</style>
<g>
	<path class="st0" d="M323,522c-58.2-8.6-160.3-19.2-229.7-22.7c-0.5,0-1,0-1.5-0.1c1.4-46.6,2.8-97.3,4.2-141.1
		c2.8-87.4,5.6-174.7,8.4-262.1c0.6-20.1,1.3-40.1,1.9-60.2c0.1-2.4-0.1-4.6-0.4-6.5c1.5-7.9,0.5-17.5-4.6-23
		c-7-7.5-20.2-7.1-29.1-4.5C58,6,44.4,14.2,33.8,24.6C22.7,35.6,15,47.4,8.5,61.6c-8.4,18.4-15,49.7,2.5,64.3
		c5,86.4,16.4,283.2,21.8,386c-1.1,1.4-2.5,3.7-5.3,7.6c-6.6,9.7-13,23.9-14.4,36.8c-1.3,3.5-1,8-0.1,11.3
		c1.9,6.8,5.5,13.2,9.9,18.1c4.7,5.2,9.7,8.8,15.6,11.7c4.9,2.4,12,4.4,18,3.4c5.5-0.5,11.4-3,16.6-7.2c2.4-1.9,4.4-4.1,6.2-6.4
		c86.4-0.9,239.9-17.4,255.5-23.4C357.8,555.1,356.2,526.9,323,522z"/>
	<path class="st0" d="M1077.5,47.5c-58.6-5.3-161.2-10.1-230.6-9.7c-1.4,0-2.8,0.1-4.2,0.2c0-0.8,0-1.5,0.1-2.3
		c0.1-2.4-0.1-4.6-0.5-6.6c1.6-7.8,0.6-17.5-4.5-22.9c-7-7.4-20-7.1-28.8-4.5c-14.2,4.2-27.6,12.4-38.1,22.7
		c-11,10.8-18.7,22.5-25.1,36.6c-8.1,17.7-14.5,47.7,1.1,62.6c1.9,39.5,4.9,103.6,8.1,171.1c-5.5,5.9-6.4,11.1-12.2,22.7
		c-10.6,21.2-21.5,51.8,5.7,54.2c3.1-0.7,6.4-1.4,10-2.1c4.6,101.5,8.6,193,8.4,201.6c-0.9,26.7,24.3,29.9,40.3,17.1
		c15.6-12.5,16.6-38.2,17.5-65.8c0.8-23.7,3.4-90.2,6.4-165.1c72.6-11.4,158.7-23.7,169.1-29.6c18.3-10.5,16.2-38.4-11-40.8
		c-39.1-3.6-102.5-6.2-155.1-6.1c2.4-61.3,4.7-120.7,6.1-160.6c92-10.6,237.1-24.8,251.8-31.5C1114.1,78.6,1111,50.5,1077.5,47.5z"
		/>
	<path class="st0" d="M559.1,6.6c-7.4-7.9-21.4-7.6-30.8-4.8C513.2,6.3,498.9,15,487.6,26c-11.8,11.6-20,24.1-26.8,39.1
		c-9.6,21.1-17.1,58.5,8.1,71.7c5.2,123.3,17.4,418.6,16.9,434.4c-0.9,26.7,21.6,29.9,37.6,17.1c15.6-12.5,16.6-38.2,17.5-65.8
		c1.8-54.8,18.9-339.2,21.7-426.5c0.6-20.1,1.3-40.1,1.9-60.2c0.1-2.1-0.1-4-0.3-5.8C565.5,21.8,564.3,12.1,559.1,6.6z"/>
</g>
</svg>
