<svg id="Layer_1" data-name="Layer 1" xmlns="http://www.w3.org/2000/svg" xmlns:xlink="http://www.w3.org/1999/xlink" viewBox="0 0 45 40"><defs><style>.cls-1{fill:url(#radial-gradient);}.cls-2{fill:url(#radial-gradient-2);}</style><radialGradient id="radial-gradient" cx="-365.96" cy="1033.2" r="1" gradientTransform="matrix(-45, 0, 0, 40, -16423, -41288)" gradientUnits="userSpaceOnUse"><stop offset="0" stop-color="#265dd7"/><stop offset="1" stop-color="#0582ca"/></radialGradient><radialGradient id="radial-gradient-2" cx="-367.55" cy="1048.02" r="1" gradientTransform="matrix(-12.27, 15.26, 15.04, 12.09, -20240.64, -7050.39)" gradientUnits="userSpaceOnUse"><stop offset="0.19" stop-color="#fff"/><stop offset="0.61" stop-color="#fff" stop-opacity="0.86"/><stop offset="1" stop-color="#fff" stop-opacity="0.6"/></radialGradient></defs><title>attributes-safe</title><path class="cls-1" d="M44.5,18.12,35.12,1.88A3.74,3.74,0,0,0,31.87,0H13.12A3.72,3.72,0,0,0,9.88,1.88L.5,18.12a3.77,3.77,0,0,0,0,3.76L9.88,38.12A3.72,3.72,0,0,0,13.12,40H31.87a3.74,3.74,0,0,0,3.25-1.88l9.37-16.24A3.74,3.74,0,0,0,44.5,18.12Z"/><path class="cls-2" d="M23.25,9.62a1,1,0,0,0-1.22,0c-2.12,1.73-6.21,3.14-7.68,3.61a.77.77,0,0,0-.55.74c0,7.34.63,13.74,8.38,17.1a1.22,1.22,0,0,0,.92,0c7.75-3.36,8.36-9.76,8.38-17.1a.77.77,0,0,0-.54-.74C29.46,12.76,25.38,11.35,23.25,9.62Z"/></svg>
