<svg id="Layer_1" data-name="Layer 1" xmlns="http://www.w3.org/2000/svg" xmlns:xlink="http://www.w3.org/1999/xlink" viewBox="0 0 45 40"><defs><style>.cls-1{fill:url(#radial-gradient);}.cls-2{fill:url(#radial-gradient-2);}</style><radialGradient id="radial-gradient" cx="-365.96" cy="989.32" r="1" gradientTransform="matrix(-45, 0, 0, 40, -16423, -39533)" gradientUnits="userSpaceOnUse"><stop offset="0" stop-color="#265dd7"/><stop offset="1" stop-color="#0582ca"/></radialGradient><radialGradient id="radial-gradient-2" cx="-366.9" cy="1002.29" r="1" gradientTransform="matrix(-14.57, 14.8, 14.93, 14.7, -20285.19, -9293.21)" gradientUnits="userSpaceOnUse"><stop offset="0.19" stop-color="#fff"/><stop offset="0.61" stop-color="#fff" stop-opacity="0.86"/><stop offset="1" stop-color="#fff" stop-opacity="0.6"/></radialGradient></defs><title>attributes-special</title><path class="cls-1" d="M44.5,18.12,35.12,1.87A3.75,3.75,0,0,0,31.87,0H13.12A3.73,3.73,0,0,0,9.88,1.87L.5,18.12a3.75,3.75,0,0,0,0,3.75L9.88,38.12A3.72,3.72,0,0,0,13.12,40H31.87a3.74,3.74,0,0,0,3.25-1.88l9.37-16.25A3.73,3.73,0,0,0,44.5,18.12Z"/><path class="cls-2" d="M32.91,16.79a1.36,1.36,0,0,0-1.26-.92h-5.5a.49.49,0,0,1-.45-.27L23.81,9.92a1.33,1.33,0,0,0-1.71-.83,1.78,1.78,0,0,0-.82.83l-2,5.68a.49.49,0,0,1-.45.27h-5.5A1.4,1.4,0,0,0,12,17.25a1.71,1.71,0,0,0,.45,1.1l4.69,3.94c.18.09.18.28.18.46l-2,6a1.4,1.4,0,0,0,.81,1.74,1.26,1.26,0,0,0,1.26-.18l4.78-3.58a.57.57,0,0,1,.54,0l4.77,3.58A1.4,1.4,0,0,0,29.4,30a1.3,1.3,0,0,0,.18-1.28l-1.9-6a.34.34,0,0,1,.18-.46l4.69-3.94A1.47,1.47,0,0,0,32.91,16.79Z"/></svg>
